<mxfile host="app.diagrams.net" modified="2021-07-13T08:16:24.286Z" agent="5.0 (Windows NT 10.0; Win64; x64) AppleWebKit/537.36 (KHTML, like Gecko) Chrome/91.0.4472.124 Safari/537.36" etag="q0SvyXQVbVjTWyVDQpap" version="14.8.6" type="github">
  <diagram id="C5RBs43oDa-KdzZeNtuy" name="Page-1">
    <mxGraphModel dx="1385" dy="635" grid="1" gridSize="10" guides="1" tooltips="1" connect="1" arrows="1" fold="1" page="1" pageScale="1" pageWidth="2339" pageHeight="3300" math="0" shadow="0">
      <root>
        <mxCell id="WIyWlLk6GJQsqaUBKTNV-0" />
        <mxCell id="WIyWlLk6GJQsqaUBKTNV-1" parent="WIyWlLk6GJQsqaUBKTNV-0" />
        <mxCell id="WIyWlLk6GJQsqaUBKTNV-2" value="" style="rounded=0;html=1;jettySize=auto;orthogonalLoop=1;fontSize=11;endArrow=block;endFill=0;endSize=8;strokeWidth=1;shadow=0;labelBackgroundColor=none;edgeStyle=orthogonalEdgeStyle;" parent="WIyWlLk6GJQsqaUBKTNV-1" source="WIyWlLk6GJQsqaUBKTNV-3" target="WIyWlLk6GJQsqaUBKTNV-6" edge="1">
          <mxGeometry relative="1" as="geometry" />
        </mxCell>
        <mxCell id="WIyWlLk6GJQsqaUBKTNV-3" value="Logg inn med brukernavn og passord" style="rounded=1;whiteSpace=wrap;html=1;fontSize=12;glass=0;strokeWidth=1;shadow=0;" parent="WIyWlLk6GJQsqaUBKTNV-1" vertex="1">
          <mxGeometry x="20" y="190" width="120" height="40" as="geometry" />
        </mxCell>
        <mxCell id="WIyWlLk6GJQsqaUBKTNV-4" value="Ja" style="rounded=0;html=1;jettySize=auto;orthogonalLoop=1;fontSize=11;endArrow=block;endFill=0;endSize=8;strokeWidth=1;shadow=0;labelBackgroundColor=none;edgeStyle=orthogonalEdgeStyle;entryX=0;entryY=0.5;entryDx=0;entryDy=0;exitX=1;exitY=0.5;exitDx=0;exitDy=0;" parent="WIyWlLk6GJQsqaUBKTNV-1" source="WIyWlLk6GJQsqaUBKTNV-6" target="FbsgLhKxGdnLnTk0FxOp-0" edge="1">
          <mxGeometry y="20" relative="1" as="geometry">
            <mxPoint as="offset" />
            <mxPoint x="320" y="210" as="targetPoint" />
          </mxGeometry>
        </mxCell>
        <mxCell id="WIyWlLk6GJQsqaUBKTNV-5" value="Nei" style="edgeStyle=orthogonalEdgeStyle;rounded=0;html=1;jettySize=auto;orthogonalLoop=1;fontSize=11;endArrow=block;endFill=0;endSize=8;strokeWidth=1;shadow=0;labelBackgroundColor=none;entryX=0.5;entryY=1;entryDx=0;entryDy=0;exitX=0.5;exitY=1;exitDx=0;exitDy=0;" parent="WIyWlLk6GJQsqaUBKTNV-1" source="WIyWlLk6GJQsqaUBKTNV-6" target="WIyWlLk6GJQsqaUBKTNV-3" edge="1">
          <mxGeometry x="-0.8997" y="20" relative="1" as="geometry">
            <mxPoint as="offset" />
          </mxGeometry>
        </mxCell>
        <mxCell id="WIyWlLk6GJQsqaUBKTNV-6" value="Godkjent innlogging?" style="rhombus;whiteSpace=wrap;html=1;shadow=0;fontFamily=Helvetica;fontSize=12;align=center;strokeWidth=1;spacing=6;spacingTop=-4;" parent="WIyWlLk6GJQsqaUBKTNV-1" vertex="1">
          <mxGeometry x="170" y="170" width="100" height="80" as="geometry" />
        </mxCell>
        <mxCell id="FbsgLhKxGdnLnTk0FxOp-0" value="To faktor autorisering er aktivert?" style="rhombus;whiteSpace=wrap;html=1;shadow=0;fontFamily=Helvetica;fontSize=12;align=center;strokeWidth=1;spacing=6;spacingTop=-4;" vertex="1" parent="WIyWlLk6GJQsqaUBKTNV-1">
          <mxGeometry x="330" y="170" width="100" height="80" as="geometry" />
        </mxCell>
        <mxCell id="FbsgLhKxGdnLnTk0FxOp-1" value="Ja" style="rounded=0;html=1;jettySize=auto;orthogonalLoop=1;fontSize=11;endArrow=block;endFill=0;endSize=8;strokeWidth=1;shadow=0;labelBackgroundColor=none;edgeStyle=orthogonalEdgeStyle;exitX=1;exitY=0.5;exitDx=0;exitDy=0;entryX=0;entryY=0.5;entryDx=0;entryDy=0;" edge="1" parent="WIyWlLk6GJQsqaUBKTNV-1" source="FbsgLhKxGdnLnTk0FxOp-0" target="FbsgLhKxGdnLnTk0FxOp-7">
          <mxGeometry y="20" relative="1" as="geometry">
            <mxPoint as="offset" />
            <mxPoint x="460" y="209.58" as="sourcePoint" />
            <mxPoint x="475" y="210" as="targetPoint" />
          </mxGeometry>
        </mxCell>
        <mxCell id="FbsgLhKxGdnLnTk0FxOp-6" value="Nei" style="edgeStyle=orthogonalEdgeStyle;rounded=0;html=1;jettySize=auto;orthogonalLoop=1;fontSize=11;endArrow=block;endFill=0;endSize=8;strokeWidth=1;shadow=0;labelBackgroundColor=none;exitX=0.5;exitY=1;exitDx=0;exitDy=0;entryX=0.5;entryY=1;entryDx=0;entryDy=0;" edge="1" parent="WIyWlLk6GJQsqaUBKTNV-1" source="FbsgLhKxGdnLnTk0FxOp-0" target="FbsgLhKxGdnLnTk0FxOp-24">
          <mxGeometry x="-0.969" y="20" relative="1" as="geometry">
            <mxPoint as="offset" />
            <mxPoint x="413" y="300" as="sourcePoint" />
            <mxPoint x="1010" y="410" as="targetPoint" />
            <Array as="points">
              <mxPoint x="380" y="450" />
              <mxPoint x="1250" y="450" />
            </Array>
          </mxGeometry>
        </mxCell>
        <mxCell id="FbsgLhKxGdnLnTk0FxOp-7" value="Side for innlogging med autoriserings-app" style="rounded=1;whiteSpace=wrap;html=1;fontSize=12;glass=0;strokeWidth=1;shadow=0;" vertex="1" parent="WIyWlLk6GJQsqaUBKTNV-1">
          <mxGeometry x="490" y="190" width="120" height="40" as="geometry" />
        </mxCell>
        <mxCell id="FbsgLhKxGdnLnTk0FxOp-8" value="&lt;font style=&quot;font-size: 9px&quot;&gt;Send SMS for autorisering? (knapp pÃ¥ siden)&lt;/font&gt;" style="rhombus;whiteSpace=wrap;html=1;shadow=0;fontFamily=Helvetica;fontSize=12;align=center;strokeWidth=1;spacing=6;spacingTop=-4;" vertex="1" parent="WIyWlLk6GJQsqaUBKTNV-1">
          <mxGeometry x="660" y="170" width="100" height="80" as="geometry" />
        </mxCell>
        <mxCell id="FbsgLhKxGdnLnTk0FxOp-9" value="" style="rounded=0;html=1;jettySize=auto;orthogonalLoop=1;fontSize=11;endArrow=block;endFill=0;endSize=8;strokeWidth=1;shadow=0;labelBackgroundColor=none;edgeStyle=orthogonalEdgeStyle;exitX=1;exitY=0.5;exitDx=0;exitDy=0;entryX=0;entryY=0.5;entryDx=0;entryDy=0;" edge="1" parent="WIyWlLk6GJQsqaUBKTNV-1" source="FbsgLhKxGdnLnTk0FxOp-7" target="FbsgLhKxGdnLnTk0FxOp-8">
          <mxGeometry relative="1" as="geometry">
            <mxPoint x="630" y="209.66" as="sourcePoint" />
            <mxPoint x="660" y="209.66" as="targetPoint" />
          </mxGeometry>
        </mxCell>
        <mxCell id="FbsgLhKxGdnLnTk0FxOp-12" value="Ja" style="rounded=0;html=1;jettySize=auto;orthogonalLoop=1;fontSize=11;endArrow=block;endFill=0;endSize=8;strokeWidth=1;shadow=0;labelBackgroundColor=none;edgeStyle=orthogonalEdgeStyle;exitX=1;exitY=0.5;exitDx=0;exitDy=0;entryX=0;entryY=0.5;entryDx=0;entryDy=0;" edge="1" parent="WIyWlLk6GJQsqaUBKTNV-1" source="FbsgLhKxGdnLnTk0FxOp-8" target="FbsgLhKxGdnLnTk0FxOp-18">
          <mxGeometry y="20" relative="1" as="geometry">
            <mxPoint as="offset" />
            <mxPoint x="770.0000000000002" y="209.66" as="sourcePoint" />
            <mxPoint x="830.0000000000002" y="209.66" as="targetPoint" />
            <Array as="points" />
          </mxGeometry>
        </mxCell>
        <mxCell id="FbsgLhKxGdnLnTk0FxOp-13" value="Nei" style="edgeStyle=orthogonalEdgeStyle;rounded=0;html=1;jettySize=auto;orthogonalLoop=1;fontSize=11;endArrow=block;endFill=0;endSize=8;strokeWidth=1;shadow=0;labelBackgroundColor=none;exitX=0.5;exitY=1;exitDx=0;exitDy=0;entryX=0.5;entryY=0;entryDx=0;entryDy=0;" edge="1" parent="WIyWlLk6GJQsqaUBKTNV-1" source="FbsgLhKxGdnLnTk0FxOp-8" target="FbsgLhKxGdnLnTk0FxOp-14">
          <mxGeometry x="-0.1" y="20" relative="1" as="geometry">
            <mxPoint as="offset" />
            <mxPoint x="709.6600000000003" y="260" as="sourcePoint" />
            <mxPoint x="709.6600000000003" y="310" as="targetPoint" />
          </mxGeometry>
        </mxCell>
        <mxCell id="FbsgLhKxGdnLnTk0FxOp-14" value="&lt;font style=&quot;font-size: 11px&quot;&gt;Godkjent autoriserings-kode fra app&lt;/font&gt;" style="rhombus;whiteSpace=wrap;html=1;shadow=0;fontFamily=Helvetica;fontSize=12;align=center;strokeWidth=1;spacing=6;spacingTop=-4;" vertex="1" parent="WIyWlLk6GJQsqaUBKTNV-1">
          <mxGeometry x="660" y="280" width="100" height="80" as="geometry" />
        </mxCell>
        <mxCell id="FbsgLhKxGdnLnTk0FxOp-16" value="Ja" style="rounded=0;html=1;jettySize=auto;orthogonalLoop=1;fontSize=11;endArrow=block;endFill=0;endSize=8;strokeWidth=1;shadow=0;labelBackgroundColor=none;edgeStyle=orthogonalEdgeStyle;exitX=0.5;exitY=1;exitDx=0;exitDy=0;entryX=0.5;entryY=1;entryDx=0;entryDy=0;" edge="1" parent="WIyWlLk6GJQsqaUBKTNV-1" source="FbsgLhKxGdnLnTk0FxOp-14" target="FbsgLhKxGdnLnTk0FxOp-24">
          <mxGeometry x="-0.8593" y="10" relative="1" as="geometry">
            <mxPoint as="offset" />
            <mxPoint x="740.0000000000002" y="400" as="sourcePoint" />
            <mxPoint x="710" y="410" as="targetPoint" />
          </mxGeometry>
        </mxCell>
        <mxCell id="FbsgLhKxGdnLnTk0FxOp-17" value="Nei" style="edgeStyle=orthogonalEdgeStyle;rounded=0;html=1;jettySize=auto;orthogonalLoop=1;fontSize=11;endArrow=block;endFill=0;endSize=8;strokeWidth=1;shadow=0;labelBackgroundColor=none;exitX=0;exitY=0.5;exitDx=0;exitDy=0;entryX=0.5;entryY=1;entryDx=0;entryDy=0;" edge="1" parent="WIyWlLk6GJQsqaUBKTNV-1" source="FbsgLhKxGdnLnTk0FxOp-14" target="FbsgLhKxGdnLnTk0FxOp-7">
          <mxGeometry x="-0.8" y="-10" relative="1" as="geometry">
            <mxPoint as="offset" />
            <mxPoint x="390.0000000000002" y="260" as="sourcePoint" />
            <mxPoint x="390.0000000000002" y="310" as="targetPoint" />
          </mxGeometry>
        </mxCell>
        <mxCell id="FbsgLhKxGdnLnTk0FxOp-18" value="Side for innlogging med autoriserings-SMS" style="rounded=1;whiteSpace=wrap;html=1;fontSize=12;glass=0;strokeWidth=1;shadow=0;" vertex="1" parent="WIyWlLk6GJQsqaUBKTNV-1">
          <mxGeometry x="820" y="190" width="120" height="40" as="geometry" />
        </mxCell>
        <mxCell id="FbsgLhKxGdnLnTk0FxOp-20" value="Godkjent kode fra SMS" style="rhombus;whiteSpace=wrap;html=1;shadow=0;fontFamily=Helvetica;fontSize=12;align=center;strokeWidth=1;spacing=6;spacingTop=-4;" vertex="1" parent="WIyWlLk6GJQsqaUBKTNV-1">
          <mxGeometry x="990" y="170" width="100" height="80" as="geometry" />
        </mxCell>
        <mxCell id="FbsgLhKxGdnLnTk0FxOp-21" value="Ja" style="rounded=0;html=1;jettySize=auto;orthogonalLoop=1;fontSize=11;endArrow=block;endFill=0;endSize=8;strokeWidth=1;shadow=0;labelBackgroundColor=none;edgeStyle=orthogonalEdgeStyle;exitX=1;exitY=0.5;exitDx=0;exitDy=0;entryX=0;entryY=0.5;entryDx=0;entryDy=0;" edge="1" parent="WIyWlLk6GJQsqaUBKTNV-1" source="FbsgLhKxGdnLnTk0FxOp-20" target="FbsgLhKxGdnLnTk0FxOp-24">
          <mxGeometry x="-0.6" y="20" relative="1" as="geometry">
            <mxPoint as="offset" />
            <mxPoint x="1080.0000000000002" y="500" as="sourcePoint" />
            <mxPoint x="1110" y="400" as="targetPoint" />
          </mxGeometry>
        </mxCell>
        <mxCell id="FbsgLhKxGdnLnTk0FxOp-22" value="Nei" style="edgeStyle=orthogonalEdgeStyle;rounded=0;html=1;jettySize=auto;orthogonalLoop=1;fontSize=11;endArrow=block;endFill=0;endSize=8;strokeWidth=1;shadow=0;labelBackgroundColor=none;exitX=0.5;exitY=1;exitDx=0;exitDy=0;entryX=0.5;entryY=1;entryDx=0;entryDy=0;" edge="1" parent="WIyWlLk6GJQsqaUBKTNV-1" source="FbsgLhKxGdnLnTk0FxOp-20" target="FbsgLhKxGdnLnTk0FxOp-18">
          <mxGeometry x="-0.9088" y="20" relative="1" as="geometry">
            <mxPoint as="offset" />
            <mxPoint x="730.0000000000002" y="360" as="sourcePoint" />
            <mxPoint x="880" y="250" as="targetPoint" />
          </mxGeometry>
        </mxCell>
        <mxCell id="FbsgLhKxGdnLnTk0FxOp-23" value="" style="rounded=0;html=1;jettySize=auto;orthogonalLoop=1;fontSize=11;endArrow=block;endFill=0;endSize=8;strokeWidth=1;shadow=0;labelBackgroundColor=none;edgeStyle=orthogonalEdgeStyle;exitX=1;exitY=0.5;exitDx=0;exitDy=0;entryX=0;entryY=0.5;entryDx=0;entryDy=0;" edge="1" parent="WIyWlLk6GJQsqaUBKTNV-1" source="FbsgLhKxGdnLnTk0FxOp-18" target="FbsgLhKxGdnLnTk0FxOp-20">
          <mxGeometry relative="1" as="geometry">
            <mxPoint x="960" y="209.66" as="sourcePoint" />
            <mxPoint x="990.0000000000002" y="209.66" as="targetPoint" />
          </mxGeometry>
        </mxCell>
        <mxCell id="FbsgLhKxGdnLnTk0FxOp-24" value="Vellykket innlogging" style="rounded=1;whiteSpace=wrap;html=1;fontSize=12;glass=0;strokeWidth=1;shadow=0;" vertex="1" parent="WIyWlLk6GJQsqaUBKTNV-1">
          <mxGeometry x="1190" y="190" width="120" height="40" as="geometry" />
        </mxCell>
        <mxCell id="FbsgLhKxGdnLnTk0FxOp-26" value="" style="rounded=0;html=1;jettySize=auto;orthogonalLoop=1;fontSize=11;endArrow=block;endFill=0;endSize=8;strokeWidth=1;shadow=0;labelBackgroundColor=none;edgeStyle=orthogonalEdgeStyle;" edge="1" parent="WIyWlLk6GJQsqaUBKTNV-1" source="FbsgLhKxGdnLnTk0FxOp-27" target="FbsgLhKxGdnLnTk0FxOp-30">
          <mxGeometry relative="1" as="geometry" />
        </mxCell>
        <mxCell id="FbsgLhKxGdnLnTk0FxOp-27" value="Logg inn med brukernavn og passord" style="rounded=1;whiteSpace=wrap;html=1;fontSize=12;glass=0;strokeWidth=1;shadow=0;" vertex="1" parent="WIyWlLk6GJQsqaUBKTNV-1">
          <mxGeometry x="80" y="530" width="120" height="40" as="geometry" />
        </mxCell>
        <mxCell id="FbsgLhKxGdnLnTk0FxOp-28" value="Ja" style="rounded=0;html=1;jettySize=auto;orthogonalLoop=1;fontSize=11;endArrow=block;endFill=0;endSize=8;strokeWidth=1;shadow=0;labelBackgroundColor=none;edgeStyle=orthogonalEdgeStyle;entryX=0;entryY=0.5;entryDx=0;entryDy=0;exitX=1;exitY=0.5;exitDx=0;exitDy=0;" edge="1" parent="WIyWlLk6GJQsqaUBKTNV-1" source="FbsgLhKxGdnLnTk0FxOp-30" target="FbsgLhKxGdnLnTk0FxOp-31">
          <mxGeometry x="-0.6667" y="20" relative="1" as="geometry">
            <mxPoint as="offset" />
            <mxPoint x="380" y="550" as="targetPoint" />
          </mxGeometry>
        </mxCell>
        <mxCell id="FbsgLhKxGdnLnTk0FxOp-29" value="Nei" style="edgeStyle=orthogonalEdgeStyle;rounded=0;html=1;jettySize=auto;orthogonalLoop=1;fontSize=11;endArrow=block;endFill=0;endSize=8;strokeWidth=1;shadow=0;labelBackgroundColor=none;entryX=0.5;entryY=1;entryDx=0;entryDy=0;exitX=0.5;exitY=1;exitDx=0;exitDy=0;" edge="1" parent="WIyWlLk6GJQsqaUBKTNV-1" source="FbsgLhKxGdnLnTk0FxOp-30" target="FbsgLhKxGdnLnTk0FxOp-27">
          <mxGeometry x="-0.8997" y="20" relative="1" as="geometry">
            <mxPoint as="offset" />
          </mxGeometry>
        </mxCell>
        <mxCell id="FbsgLhKxGdnLnTk0FxOp-30" value="Godkjent innlogging?" style="rhombus;whiteSpace=wrap;html=1;shadow=0;fontFamily=Helvetica;fontSize=12;align=center;strokeWidth=1;spacing=6;spacingTop=-4;" vertex="1" parent="WIyWlLk6GJQsqaUBKTNV-1">
          <mxGeometry x="230" y="510" width="100" height="80" as="geometry" />
        </mxCell>
        <mxCell id="FbsgLhKxGdnLnTk0FxOp-31" value="To faktor autorisering er aktivert?" style="rhombus;whiteSpace=wrap;html=1;shadow=0;fontFamily=Helvetica;fontSize=12;align=center;strokeWidth=1;spacing=6;spacingTop=-4;" vertex="1" parent="WIyWlLk6GJQsqaUBKTNV-1">
          <mxGeometry x="390" y="510" width="100" height="80" as="geometry" />
        </mxCell>
        <mxCell id="FbsgLhKxGdnLnTk0FxOp-32" value="Ja" style="rounded=0;html=1;jettySize=auto;orthogonalLoop=1;fontSize=11;endArrow=block;endFill=0;endSize=8;strokeWidth=1;shadow=0;labelBackgroundColor=none;edgeStyle=orthogonalEdgeStyle;exitX=1;exitY=0.5;exitDx=0;exitDy=0;entryX=0;entryY=0.5;entryDx=0;entryDy=0;" edge="1" parent="WIyWlLk6GJQsqaUBKTNV-1" source="FbsgLhKxGdnLnTk0FxOp-31" target="FbsgLhKxGdnLnTk0FxOp-34">
          <mxGeometry x="-0.6667" y="20" relative="1" as="geometry">
            <mxPoint as="offset" />
            <mxPoint x="520" y="549.58" as="sourcePoint" />
            <mxPoint x="535" y="550" as="targetPoint" />
          </mxGeometry>
        </mxCell>
        <mxCell id="FbsgLhKxGdnLnTk0FxOp-34" value="Side for innlogging med autoriserings-app" style="rounded=1;whiteSpace=wrap;html=1;fontSize=12;glass=0;strokeWidth=1;shadow=0;" vertex="1" parent="WIyWlLk6GJQsqaUBKTNV-1">
          <mxGeometry x="550" y="530" width="120" height="40" as="geometry" />
        </mxCell>
        <mxCell id="FbsgLhKxGdnLnTk0FxOp-35" value="&lt;font style=&quot;font-size: 9px&quot;&gt;Send SMS for autorisering? (knapp pÃ¥ siden)&lt;/font&gt;" style="rhombus;whiteSpace=wrap;html=1;shadow=0;fontFamily=Helvetica;fontSize=12;align=center;strokeWidth=1;spacing=6;spacingTop=-4;" vertex="1" parent="WIyWlLk6GJQsqaUBKTNV-1">
          <mxGeometry x="720" y="510" width="100" height="80" as="geometry" />
        </mxCell>
        <mxCell id="FbsgLhKxGdnLnTk0FxOp-36" value="" style="rounded=0;html=1;jettySize=auto;orthogonalLoop=1;fontSize=11;endArrow=block;endFill=0;endSize=8;strokeWidth=1;shadow=0;labelBackgroundColor=none;edgeStyle=orthogonalEdgeStyle;exitX=1;exitY=0.5;exitDx=0;exitDy=0;entryX=0;entryY=0.5;entryDx=0;entryDy=0;" edge="1" parent="WIyWlLk6GJQsqaUBKTNV-1" source="FbsgLhKxGdnLnTk0FxOp-34" target="FbsgLhKxGdnLnTk0FxOp-35">
          <mxGeometry relative="1" as="geometry">
            <mxPoint x="690" y="549.66" as="sourcePoint" />
            <mxPoint x="720" y="549.66" as="targetPoint" />
          </mxGeometry>
        </mxCell>
        <mxCell id="FbsgLhKxGdnLnTk0FxOp-37" value="Ja" style="rounded=0;html=1;jettySize=auto;orthogonalLoop=1;fontSize=11;endArrow=block;endFill=0;endSize=8;strokeWidth=1;shadow=0;labelBackgroundColor=none;edgeStyle=orthogonalEdgeStyle;exitX=1;exitY=0.5;exitDx=0;exitDy=0;entryX=0;entryY=0.5;entryDx=0;entryDy=0;" edge="1" parent="WIyWlLk6GJQsqaUBKTNV-1" source="FbsgLhKxGdnLnTk0FxOp-35" target="FbsgLhKxGdnLnTk0FxOp-42">
          <mxGeometry x="-0.6667" y="20" relative="1" as="geometry">
            <mxPoint as="offset" />
            <mxPoint x="830.0000000000002" y="549.66" as="sourcePoint" />
            <mxPoint x="890.0000000000002" y="549.66" as="targetPoint" />
            <Array as="points" />
          </mxGeometry>
        </mxCell>
        <mxCell id="FbsgLhKxGdnLnTk0FxOp-38" value="Nei" style="edgeStyle=orthogonalEdgeStyle;rounded=0;html=1;jettySize=auto;orthogonalLoop=1;fontSize=11;endArrow=block;endFill=0;endSize=8;strokeWidth=1;shadow=0;labelBackgroundColor=none;exitX=0.5;exitY=1;exitDx=0;exitDy=0;entryX=0.5;entryY=0;entryDx=0;entryDy=0;" edge="1" parent="WIyWlLk6GJQsqaUBKTNV-1" source="FbsgLhKxGdnLnTk0FxOp-35" target="FbsgLhKxGdnLnTk0FxOp-39">
          <mxGeometry x="-0.1" y="20" relative="1" as="geometry">
            <mxPoint as="offset" />
            <mxPoint x="769.6600000000003" y="600" as="sourcePoint" />
            <mxPoint x="769.6600000000003" y="650" as="targetPoint" />
          </mxGeometry>
        </mxCell>
        <mxCell id="FbsgLhKxGdnLnTk0FxOp-39" value="&lt;font style=&quot;font-size: 11px&quot;&gt;Godkjent autoriserings-kode fra app&lt;/font&gt;" style="rhombus;whiteSpace=wrap;html=1;shadow=0;fontFamily=Helvetica;fontSize=12;align=center;strokeWidth=1;spacing=6;spacingTop=-4;" vertex="1" parent="WIyWlLk6GJQsqaUBKTNV-1">
          <mxGeometry x="720" y="620" width="100" height="80" as="geometry" />
        </mxCell>
        <mxCell id="FbsgLhKxGdnLnTk0FxOp-40" value="Ja" style="rounded=0;html=1;jettySize=auto;orthogonalLoop=1;fontSize=11;endArrow=block;endFill=0;endSize=8;strokeWidth=1;shadow=0;labelBackgroundColor=none;edgeStyle=orthogonalEdgeStyle;exitX=0.5;exitY=1;exitDx=0;exitDy=0;entryX=0.5;entryY=1;entryDx=0;entryDy=0;" edge="1" parent="WIyWlLk6GJQsqaUBKTNV-1" source="FbsgLhKxGdnLnTk0FxOp-39" target="FbsgLhKxGdnLnTk0FxOp-47">
          <mxGeometry x="-0.8593" y="10" relative="1" as="geometry">
            <mxPoint as="offset" />
            <mxPoint x="800.0000000000002" y="740" as="sourcePoint" />
            <mxPoint x="770" y="750" as="targetPoint" />
          </mxGeometry>
        </mxCell>
        <mxCell id="FbsgLhKxGdnLnTk0FxOp-41" value="Nei" style="edgeStyle=orthogonalEdgeStyle;rounded=0;html=1;jettySize=auto;orthogonalLoop=1;fontSize=11;endArrow=block;endFill=0;endSize=8;strokeWidth=1;shadow=0;labelBackgroundColor=none;exitX=0;exitY=0.5;exitDx=0;exitDy=0;entryX=0.5;entryY=1;entryDx=0;entryDy=0;" edge="1" parent="WIyWlLk6GJQsqaUBKTNV-1" source="FbsgLhKxGdnLnTk0FxOp-39" target="FbsgLhKxGdnLnTk0FxOp-34">
          <mxGeometry x="-0.8" y="-10" relative="1" as="geometry">
            <mxPoint as="offset" />
            <mxPoint x="450.0000000000002" y="600" as="sourcePoint" />
            <mxPoint x="450.0000000000002" y="650" as="targetPoint" />
          </mxGeometry>
        </mxCell>
        <mxCell id="FbsgLhKxGdnLnTk0FxOp-42" value="Side for innlogging med autoriserings-SMS" style="rounded=1;whiteSpace=wrap;html=1;fontSize=12;glass=0;strokeWidth=1;shadow=0;" vertex="1" parent="WIyWlLk6GJQsqaUBKTNV-1">
          <mxGeometry x="880" y="530" width="120" height="40" as="geometry" />
        </mxCell>
        <mxCell id="FbsgLhKxGdnLnTk0FxOp-43" value="Godkjent kode fra SMS" style="rhombus;whiteSpace=wrap;html=1;shadow=0;fontFamily=Helvetica;fontSize=12;align=center;strokeWidth=1;spacing=6;spacingTop=-4;" vertex="1" parent="WIyWlLk6GJQsqaUBKTNV-1">
          <mxGeometry x="1050" y="510" width="100" height="80" as="geometry" />
        </mxCell>
        <mxCell id="FbsgLhKxGdnLnTk0FxOp-44" value="Ja" style="rounded=0;html=1;jettySize=auto;orthogonalLoop=1;fontSize=11;endArrow=block;endFill=0;endSize=8;strokeWidth=1;shadow=0;labelBackgroundColor=none;edgeStyle=orthogonalEdgeStyle;exitX=1;exitY=0.5;exitDx=0;exitDy=0;entryX=0;entryY=0.5;entryDx=0;entryDy=0;" edge="1" parent="WIyWlLk6GJQsqaUBKTNV-1" source="FbsgLhKxGdnLnTk0FxOp-43" target="FbsgLhKxGdnLnTk0FxOp-47">
          <mxGeometry x="-0.6" y="20" relative="1" as="geometry">
            <mxPoint as="offset" />
            <mxPoint x="1140.0000000000002" y="840" as="sourcePoint" />
            <mxPoint x="1170" y="740" as="targetPoint" />
          </mxGeometry>
        </mxCell>
        <mxCell id="FbsgLhKxGdnLnTk0FxOp-45" value="Nei" style="edgeStyle=orthogonalEdgeStyle;rounded=0;html=1;jettySize=auto;orthogonalLoop=1;fontSize=11;endArrow=block;endFill=0;endSize=8;strokeWidth=1;shadow=0;labelBackgroundColor=none;exitX=0.5;exitY=1;exitDx=0;exitDy=0;entryX=0.5;entryY=1;entryDx=0;entryDy=0;" edge="1" parent="WIyWlLk6GJQsqaUBKTNV-1" source="FbsgLhKxGdnLnTk0FxOp-43" target="FbsgLhKxGdnLnTk0FxOp-42">
          <mxGeometry x="-0.9088" y="20" relative="1" as="geometry">
            <mxPoint as="offset" />
            <mxPoint x="790.0000000000002" y="700" as="sourcePoint" />
            <mxPoint x="940" y="590" as="targetPoint" />
          </mxGeometry>
        </mxCell>
        <mxCell id="FbsgLhKxGdnLnTk0FxOp-46" value="" style="rounded=0;html=1;jettySize=auto;orthogonalLoop=1;fontSize=11;endArrow=block;endFill=0;endSize=8;strokeWidth=1;shadow=0;labelBackgroundColor=none;edgeStyle=orthogonalEdgeStyle;exitX=1;exitY=0.5;exitDx=0;exitDy=0;entryX=0;entryY=0.5;entryDx=0;entryDy=0;" edge="1" parent="WIyWlLk6GJQsqaUBKTNV-1" source="FbsgLhKxGdnLnTk0FxOp-42" target="FbsgLhKxGdnLnTk0FxOp-43">
          <mxGeometry relative="1" as="geometry">
            <mxPoint x="1020" y="549.66" as="sourcePoint" />
            <mxPoint x="1050.0000000000002" y="549.66" as="targetPoint" />
          </mxGeometry>
        </mxCell>
        <mxCell id="FbsgLhKxGdnLnTk0FxOp-47" value="Vellykket innlogging" style="rounded=1;whiteSpace=wrap;html=1;fontSize=12;glass=0;strokeWidth=1;shadow=0;" vertex="1" parent="WIyWlLk6GJQsqaUBKTNV-1">
          <mxGeometry x="1250" y="530" width="120" height="40" as="geometry" />
        </mxCell>
        <mxCell id="FbsgLhKxGdnLnTk0FxOp-48" value="Kreve to faktor" style="rhombus;whiteSpace=wrap;html=1;shadow=0;fontFamily=Helvetica;fontSize=12;align=center;strokeWidth=1;spacing=6;spacingTop=-4;" vertex="1" parent="WIyWlLk6GJQsqaUBKTNV-1">
          <mxGeometry x="390" y="650" width="100" height="80" as="geometry" />
        </mxCell>
        <mxCell id="FbsgLhKxGdnLnTk0FxOp-49" value="Nei" style="edgeStyle=orthogonalEdgeStyle;rounded=0;html=1;jettySize=auto;orthogonalLoop=1;fontSize=11;endArrow=block;endFill=0;endSize=8;strokeWidth=1;shadow=0;labelBackgroundColor=none;entryX=0.5;entryY=0;entryDx=0;entryDy=0;exitX=0.5;exitY=1;exitDx=0;exitDy=0;" edge="1" parent="WIyWlLk6GJQsqaUBKTNV-1" source="FbsgLhKxGdnLnTk0FxOp-31" target="FbsgLhKxGdnLnTk0FxOp-48">
          <mxGeometry x="-0.8997" y="20" relative="1" as="geometry">
            <mxPoint as="offset" />
            <mxPoint x="430" y="630" as="sourcePoint" />
            <mxPoint x="290" y="610" as="targetPoint" />
          </mxGeometry>
        </mxCell>
        <mxCell id="FbsgLhKxGdnLnTk0FxOp-50" value="Ja" style="rounded=0;html=1;jettySize=auto;orthogonalLoop=1;fontSize=11;endArrow=block;endFill=0;endSize=8;strokeWidth=1;shadow=0;labelBackgroundColor=none;edgeStyle=orthogonalEdgeStyle;exitX=1;exitY=0.5;exitDx=0;exitDy=0;" edge="1" parent="WIyWlLk6GJQsqaUBKTNV-1" source="FbsgLhKxGdnLnTk0FxOp-48">
          <mxGeometry y="20" relative="1" as="geometry">
            <mxPoint as="offset" />
            <mxPoint x="500" y="560" as="sourcePoint" />
            <mxPoint x="540" y="690" as="targetPoint" />
          </mxGeometry>
        </mxCell>
        <mxCell id="FbsgLhKxGdnLnTk0FxOp-51" value="Nei" style="edgeStyle=orthogonalEdgeStyle;rounded=0;html=1;jettySize=auto;orthogonalLoop=1;fontSize=11;endArrow=block;endFill=0;endSize=8;strokeWidth=1;shadow=0;labelBackgroundColor=none;entryX=0.5;entryY=1;entryDx=0;entryDy=0;exitX=0.5;exitY=1;exitDx=0;exitDy=0;" edge="1" parent="WIyWlLk6GJQsqaUBKTNV-1" source="FbsgLhKxGdnLnTk0FxOp-48" target="FbsgLhKxGdnLnTk0FxOp-47">
          <mxGeometry x="-0.9821" y="10" relative="1" as="geometry">
            <mxPoint as="offset" />
            <mxPoint x="439.58" y="770" as="sourcePoint" />
            <mxPoint x="439.58" y="800" as="targetPoint" />
            <Array as="points">
              <mxPoint x="440" y="800" />
              <mxPoint x="1310" y="800" />
            </Array>
          </mxGeometry>
        </mxCell>
        <mxCell id="FbsgLhKxGdnLnTk0FxOp-52" value="&lt;font style=&quot;font-size: 21px&quot; color=&quot;#ff6666&quot;&gt;?&lt;/font&gt;" style="text;html=1;strokeColor=none;fillColor=none;align=center;verticalAlign=middle;whiteSpace=wrap;rounded=0;" vertex="1" parent="WIyWlLk6GJQsqaUBKTNV-1">
          <mxGeometry x="540" y="680" width="40" height="20" as="geometry" />
        </mxCell>
      </root>
    </mxGraphModel>
  </diagram>
</mxfile>
